<mxfile host="app.diagrams.net" modified="2024-02-24T01:41:55.587Z" agent="Mozilla/5.0 (Windows NT 10.0; Win64; x64) AppleWebKit/537.36 (KHTML, like Gecko) Chrome/121.0.0.0 Safari/537.36" etag="I1PKX36ENzx6MsCX2mGG" version="23.1.6" type="device">
  <diagram id="C5RBs43oDa-KdzZeNtuy" name="Page-1">
    <mxGraphModel dx="880" dy="446" grid="1" gridSize="10" guides="1" tooltips="1" connect="1" arrows="1" fold="1" page="1" pageScale="1" pageWidth="827" pageHeight="1169" math="0" shadow="0">
      <root>
        <mxCell id="WIyWlLk6GJQsqaUBKTNV-0" />
        <mxCell id="WIyWlLk6GJQsqaUBKTNV-1" parent="WIyWlLk6GJQsqaUBKTNV-0" />
        <mxCell id="43-bNM765qXtJcL10XEs-22" value="" style="edgeStyle=orthogonalEdgeStyle;rounded=0;orthogonalLoop=1;jettySize=auto;html=1;" edge="1" parent="WIyWlLk6GJQsqaUBKTNV-1" source="43-bNM765qXtJcL10XEs-20" target="43-bNM765qXtJcL10XEs-21">
          <mxGeometry relative="1" as="geometry" />
        </mxCell>
        <mxCell id="43-bNM765qXtJcL10XEs-20" value="a lampada nao funciona" style="strokeWidth=2;html=1;shape=mxgraph.flowchart.terminator;whiteSpace=wrap;" vertex="1" parent="WIyWlLk6GJQsqaUBKTNV-1">
          <mxGeometry x="314" y="160" width="100" height="60" as="geometry" />
        </mxCell>
        <mxCell id="43-bNM765qXtJcL10XEs-24" value="" style="edgeStyle=orthogonalEdgeStyle;rounded=0;orthogonalLoop=1;jettySize=auto;html=1;" edge="1" parent="WIyWlLk6GJQsqaUBKTNV-1" source="43-bNM765qXtJcL10XEs-21" target="43-bNM765qXtJcL10XEs-23">
          <mxGeometry relative="1" as="geometry" />
        </mxCell>
        <mxCell id="43-bNM765qXtJcL10XEs-28" value="" style="edgeStyle=orthogonalEdgeStyle;rounded=0;orthogonalLoop=1;jettySize=auto;html=1;" edge="1" parent="WIyWlLk6GJQsqaUBKTNV-1" source="43-bNM765qXtJcL10XEs-21" target="43-bNM765qXtJcL10XEs-27">
          <mxGeometry relative="1" as="geometry" />
        </mxCell>
        <mxCell id="43-bNM765qXtJcL10XEs-21" value="a lampada estava plugada ?" style="strokeWidth=2;html=1;shape=mxgraph.flowchart.decision;whiteSpace=wrap;" vertex="1" parent="WIyWlLk6GJQsqaUBKTNV-1">
          <mxGeometry x="314" y="240" width="100" height="100" as="geometry" />
        </mxCell>
        <mxCell id="43-bNM765qXtJcL10XEs-26" value="" style="edgeStyle=orthogonalEdgeStyle;rounded=0;orthogonalLoop=1;jettySize=auto;html=1;" edge="1" parent="WIyWlLk6GJQsqaUBKTNV-1" source="43-bNM765qXtJcL10XEs-23" target="43-bNM765qXtJcL10XEs-25">
          <mxGeometry relative="1" as="geometry" />
        </mxCell>
        <mxCell id="43-bNM765qXtJcL10XEs-30" value="" style="edgeStyle=orthogonalEdgeStyle;rounded=0;orthogonalLoop=1;jettySize=auto;html=1;" edge="1" parent="WIyWlLk6GJQsqaUBKTNV-1" source="43-bNM765qXtJcL10XEs-23" target="43-bNM765qXtJcL10XEs-29">
          <mxGeometry relative="1" as="geometry" />
        </mxCell>
        <mxCell id="43-bNM765qXtJcL10XEs-23" value="o bulbo queimou ?" style="strokeWidth=2;html=1;shape=mxgraph.flowchart.decision;whiteSpace=wrap;" vertex="1" parent="WIyWlLk6GJQsqaUBKTNV-1">
          <mxGeometry x="314" y="370" width="100" height="100" as="geometry" />
        </mxCell>
        <mxCell id="43-bNM765qXtJcL10XEs-25" value="comprar lampada nova" style="strokeWidth=2;html=1;shape=mxgraph.flowchart.terminator;whiteSpace=wrap;" vertex="1" parent="WIyWlLk6GJQsqaUBKTNV-1">
          <mxGeometry x="314" y="500" width="100" height="60" as="geometry" />
        </mxCell>
        <mxCell id="43-bNM765qXtJcL10XEs-27" value="plugar a lampada" style="strokeWidth=2;html=1;shape=mxgraph.flowchart.terminator;whiteSpace=wrap;" vertex="1" parent="WIyWlLk6GJQsqaUBKTNV-1">
          <mxGeometry x="440" y="260" width="100" height="60" as="geometry" />
        </mxCell>
        <mxCell id="43-bNM765qXtJcL10XEs-29" value="trocar o bulbo" style="strokeWidth=2;html=1;shape=mxgraph.flowchart.terminator;whiteSpace=wrap;" vertex="1" parent="WIyWlLk6GJQsqaUBKTNV-1">
          <mxGeometry x="440" y="390" width="100" height="60" as="geometry" />
        </mxCell>
      </root>
    </mxGraphModel>
  </diagram>
</mxfile>
